<?xml version="1.0" encoding="UTF-8" standalone="no"?>
<svg
   xmlns:dc="http://purl.org/dc/elements/1.1/"
   xmlns:cc="http://creativecommons.org/ns#"
   xmlns:rdf="http://www.w3.org/1999/02/22-rdf-syntax-ns#"
   xmlns:svg="http://www.w3.org/2000/svg"
   xmlns="http://www.w3.org/2000/svg"
   xmlns:xlink="http://www.w3.org/1999/xlink"
   xmlns:sodipodi="http://sodipodi.sourceforge.net/DTD/sodipodi-0.dtd"
   xmlns:inkscape="http://www.inkscape.org/namespaces/inkscape"
   width="1024"
   height="200"
   viewBox="0 0 270.93333 52.916668"
   version="1.1"
   id="svg961"
   inkscape:version="1.0.1 (3bc2e813f5, 2020-09-07)"
   sodipodi:docname="autorank_logo.svg">
  <defs
     id="defs955">
    <linearGradient
       inkscape:collect="always"
       id="linearGradient1633">
      <stop
         style="stop-color:#ff6600;stop-opacity:1"
         offset="0"
         id="stop1629" />
      <stop
         style="stop-color:#ffcc00;stop-opacity:1"
         offset="0.54691333"
         id="stop1637" />
      <stop
         style="stop-color:#ff6600;stop-opacity:1"
         offset="1"
         id="stop1631" />
    </linearGradient>
    <linearGradient
       inkscape:collect="always"
       xlink:href="#linearGradient1633"
       id="linearGradient1635"
       x1="530.55078"
       y1="295.73132"
       x2="530.55078"
       y2="170.81793"
       gradientUnits="userSpaceOnUse" />
    <filter
       inkscape:collect="always"
       style="color-interpolation-filters:sRGB"
       id="filter1817"
       x="-0.027246509"
       width="1.054493"
       y="-0.20142139"
       height="1.4028428">
      <feGaussianBlur
         inkscape:collect="always"
         stdDeviation="5.3491228"
         id="feGaussianBlur1819" />
    </filter>
  </defs>
  <sodipodi:namedview
     id="base"
     pagecolor="#ffffff"
     bordercolor="#666666"
     borderopacity="1.0"
     inkscape:pageopacity="0.0"
     inkscape:pageshadow="2"
     inkscape:zoom="0.56639253"
     inkscape:cx="9.295095"
     inkscape:cy="460.34688"
     inkscape:document-units="px"
     inkscape:current-layer="layer1"
     inkscape:document-rotation="0"
     showgrid="false"
     units="px"
     inkscape:showpageshadow="false"
     inkscape:window-width="1920"
     inkscape:window-height="1001"
     inkscape:window-x="-9"
     inkscape:window-y="-9"
     inkscape:window-maximized="1"
     showguides="true"
     inkscape:guide-bbox="true"
     inkscape:snap-smooth-nodes="false"
     inkscape:object-nodes="false"
     inkscape:snap-bbox="true"
     inkscape:bbox-nodes="true">
    <sodipodi:guide
       position="133.29026,204.41324"
       orientation="0,-1"
       id="guide1615" />
    <sodipodi:guide
       position="126.22066,211.94887"
       orientation="1,0"
       id="guide1617" />
    <sodipodi:guide
       position="90.525603,211.70099"
       orientation="1,0"
       id="guide1621" />
    <sodipodi:guide
       position="87.719574,197.16517"
       orientation="1,0"
       id="guide1623" />
  </sodipodi:namedview>
  <metadata
     id="metadata958">
    <rdf:RDF>
      <cc:Work
         rdf:about="">
        <dc:format>image/svg+xml</dc:format>
        <dc:type
           rdf:resource="http://purl.org/dc/dcmitype/StillImage" />
        <dc:title></dc:title>
      </cc:Work>
    </rdf:RDF>
  </metadata>
  <g
     inkscape:label="Layer 1"
     inkscape:groupmode="layer"
     id="layer1">
    <g
       id="g1824"
       transform="matrix(1.6155137,0,0,1.6155137,-83.381587,-70.74746)">
      <path
         id="path1639"
         style="color:#000000;overflow:visible;opacity:0.35;fill:none;fill-opacity:1;stroke:#000000;stroke-width:3;stroke-miterlimit:4;stroke-dasharray:none;paint-order:fill markers stroke;filter:url(#filter1817)"
         d="m 476.83984,195.54688 a 31.868213,31.868213 0 0 0 -31.65429,31.86718 31.868213,31.868213 0 0 0 31.86914,31.86914 31.868213,31.868213 0 0 0 31.86719,-31.86914 31.868213,31.868213 0 0 0 -31.86719,-31.86718 31.868213,31.868213 0 0 0 -0.21485,0 z m -179.02929,4.32421 -21.39844,54.9375 h 11.76758 l 4.53515,-12.47851 h 21.95899 l 4.79687,12.47851 h 12.06836 l -21.99804,-54.9375 z m 44.33398,0 v 29.30469 c 0,6.14592 0.36139,10.7935 1.08594,13.94141 0.49966,2.12359 1.53737,4.15871 3.11133,6.10742 1.57395,1.92372 3.71,3.49847 6.4082,4.72266 2.72319,1.1992 6.70856,1.79882 11.95508,1.79882 4.34711,0 7.86819,-0.54916 10.5664,-1.64843 2.69821,-1.12425 4.84833,-2.62429 6.44727,-4.49805 1.62394,-1.87376 2.7344,-4.17134 3.33398,-6.89453 0.59956,-2.7232 0.90039,-7.38289 0.90039,-13.97852 v -28.85547 h -11.09374 v 30.39063 c -10e-6,4.34711 -0.16153,7.45827 -0.48633,9.33203 -0.32479,1.87376 -1.28778,3.46062 -2.88672,4.75977 -1.59894,1.27415 -3.97123,1.91015 -7.11914,1.91015 -3.09795,0 -5.5469,-0.67433 -7.34571,-2.02344 -1.77382,-1.37408 -2.89837,-3.18508 -3.37304,-5.43359 -0.27485,-1.39907 -0.41211,-4.45978 -0.41211,-9.18164 v -29.75391 z m 56.36133,0 v 9.29297 h 16.30273 v 45.64453 h 11.0918 v -45.64453 h 16.26563 v -9.29297 z m 118.75976,0 v 54.9375 h 11.0918 V 231.875 h 2.24805 c 2.54831,0 4.40976,0.212 5.58398,0.63672 1.17423,0.39973 2.28664,1.1609 3.33594,2.28516 1.0493,1.09927 2.99758,3.78447 5.8457,8.05664 l 8.01953,11.95507 h 13.26758 l -6.70898,-10.71679 c -2.64824,-4.27216 -4.76001,-7.24603 -6.33399,-8.91992 -1.54895,-1.67389 -3.52148,-3.21031 -5.91992,-4.60938 4.82182,-0.69953 8.44381,-2.38537 10.86719,-5.05859 2.42338,-2.69821 3.63477,-6.10821 3.63477,-10.23047 0,-3.24785 -0.79953,-6.13488 -2.39844,-8.65821 -1.59894,-2.52332 -3.73497,-4.27173 -6.40821,-5.24609 -2.64823,-0.99934 -6.9082,-1.49805 -12.77929,-1.49805 z m 76,0 -21.39843,54.9375 h 11.76562 l 4.53516,-12.47851 h 21.96094 l 4.79687,12.47851 h 12.06641 l -21.99805,-54.9375 z m 44.51954,0 v 54.9375 h 10.30664 v -35.82617 l 22.14648,35.82617 h 11.13086 v -54.9375 H 671.0625 v 36.6875 l -22.48438,-36.6875 z m 60.25976,0 v 54.9375 h 11.09375 v -16.60156 l 8.99414,-9.18164 15.10157,25.7832 h 14.35351 l -21.81055,-33.53906 20.68555,-21.39844 h -14.91406 l -22.41016,24.39649 v -24.39649 z m -169.6875,9.29297 h 8.6582 c 4.49704,0 7.19435,0.0626 8.09376,0.1875 1.7988,0.2998 3.18581,1.02459 4.16015,2.17383 0.99936,1.12425 1.49805,2.61022 1.49805,4.45899 0,1.6489 -0.37352,3.02377 -1.12305,4.12304 -0.7495,1.09927 -1.78721,1.87257 -3.11133,2.32227 -1.32412,0.4497 -4.64727,0.67578 -9.96875,0.67578 h -8.20703 z m -224.8125,3.52344 7.57031,20.38672 H 296.125 Z m 295.45313,0 7.57031,20.38672 h -14.99024 z"
         transform="scale(0.26458334)" />
      <path
         id="path1619"
         style="color:#000000;overflow:visible;fill:url(#linearGradient1635);fill-opacity:1;stroke:none;stroke-width:2;paint-order:fill markers stroke"
         d="m 476.83984,195.54688 a 31.868213,31.868213 0 0 0 -31.65429,31.86718 31.868213,31.868213 0 0 0 31.86914,31.86914 31.868213,31.868213 0 0 0 31.86719,-31.86914 31.868213,31.868213 0 0 0 -31.86719,-31.86718 31.868213,31.868213 0 0 0 -0.21485,0 z m -179.02929,4.32421 -21.39844,54.9375 h 11.76758 l 4.53515,-12.47851 h 21.95899 l 4.79687,12.47851 h 12.06836 l -21.99804,-54.9375 z m 44.33398,0 v 29.30469 c 0,6.14592 0.36139,10.7935 1.08594,13.94141 0.49966,2.12359 1.53737,4.15871 3.11133,6.10742 1.57395,1.92372 3.71,3.49847 6.4082,4.72266 2.72319,1.1992 6.70856,1.79882 11.95508,1.79882 4.34711,0 7.86819,-0.54916 10.5664,-1.64843 2.69821,-1.12425 4.84833,-2.62429 6.44727,-4.49805 1.62394,-1.87376 2.7344,-4.17134 3.33398,-6.89453 0.59956,-2.7232 0.90039,-7.38289 0.90039,-13.97852 v -28.85547 h -11.09374 v 30.39063 c -10e-6,4.34711 -0.16153,7.45827 -0.48633,9.33203 -0.32479,1.87376 -1.28778,3.46062 -2.88672,4.75977 -1.59894,1.27415 -3.97123,1.91015 -7.11914,1.91015 -3.09795,0 -5.5469,-0.67433 -7.34571,-2.02344 -1.77382,-1.37408 -2.89837,-3.18508 -3.37304,-5.43359 -0.27485,-1.39907 -0.41211,-4.45978 -0.41211,-9.18164 v -29.75391 z m 56.36133,0 v 9.29297 h 16.30273 v 45.64453 h 11.0918 v -45.64453 h 16.26563 v -9.29297 z m 118.75976,0 v 54.9375 h 11.0918 V 231.875 h 2.24805 c 2.54831,0 4.40976,0.212 5.58398,0.63672 1.17423,0.39973 2.28664,1.1609 3.33594,2.28516 1.0493,1.09927 2.99758,3.78447 5.8457,8.05664 l 8.01953,11.95507 h 13.26758 l -6.70898,-10.71679 c -2.64824,-4.27216 -4.76001,-7.24603 -6.33399,-8.91992 -1.54895,-1.67389 -3.52148,-3.21031 -5.91992,-4.60938 4.82182,-0.69953 8.44381,-2.38537 10.86719,-5.05859 2.42338,-2.69821 3.63477,-6.10821 3.63477,-10.23047 0,-3.24785 -0.79953,-6.13488 -2.39844,-8.65821 -1.59894,-2.52332 -3.73497,-4.27173 -6.40821,-5.24609 -2.64823,-0.99934 -6.9082,-1.49805 -12.77929,-1.49805 z m 76,0 -21.39843,54.9375 h 11.76562 l 4.53516,-12.47851 h 21.96094 l 4.79687,12.47851 h 12.06641 l -21.99805,-54.9375 z m 44.51954,0 v 54.9375 h 10.30664 v -35.82617 l 22.14648,35.82617 h 11.13086 v -54.9375 H 671.0625 v 36.6875 l -22.48438,-36.6875 z m 60.25976,0 v 54.9375 h 11.09375 v -16.60156 l 8.99414,-9.18164 15.10157,25.7832 h 14.35351 l -21.81055,-33.53906 20.68555,-21.39844 h -14.91406 l -22.41016,24.39649 v -24.39649 z m -169.6875,9.29297 h 8.6582 c 4.49704,0 7.19435,0.0626 8.09376,0.1875 1.7988,0.2998 3.18581,1.02459 4.16015,2.17383 0.99936,1.12425 1.49805,2.61022 1.49805,4.45899 0,1.6489 -0.37352,3.02377 -1.12305,4.12304 -0.7495,1.09927 -1.78721,1.87257 -3.11133,2.32227 -1.32412,0.4497 -4.64727,0.67578 -9.96875,0.67578 h -8.20703 z m -224.8125,3.52344 7.57031,20.38672 H 296.125 Z m 295.45313,0 7.57031,20.38672 h -14.99024 z"
         transform="scale(0.26458334)" />
      <path
         id="path1179"
         style="color:#000000;overflow:visible;fill:#ffffff;fill-opacity:1;stroke-width:0.096457;stroke-linejoin:round"
         d="m 126.21326,53.105517 -6.49259,6.492594 a 0.32330829,0.32330829 0 0 0 0.2284,0.552012 h 2.74188 v 5.283454 a 1.7612665,1.7612665 0 0 0 1.76115,1.76115 h 1.76116 v -7.044604 z m 5.3e-4,0 v 0.272427 h 0.27243 1.56632 c 0.86698,3e-6 1.56633,0.700451 1.56633,1.567425 v 5.244929 h 2.7884 c 0.0844,-2e-6 0.13598,0.04518 0.16207,0.108146 0.0261,0.06297 0.0222,0.1327 -0.0374,0.192351 l -6.0457,6.045978 -0.27243,0.272427 v 0.385807 l 0.23169,-0.233082 6.27879,-6.277679 c 0.1373,-0.137301 0.16092,-0.335176 0.0969,-0.48982 -0.064,-0.154644 -0.2197,-0.276562 -0.41387,-0.276556 h -2.51597 v -4.972501 c 1e-5,-1.014234 -0.82451,-1.83985 -1.83875,-1.839852 z"
         inkscape:export-xdpi="90"
         inkscape:export-ydpi="90" />
    </g>
  </g>
</svg>
